<svg data-name="Layer 1" xmlns="http://www.w3.org/2000/svg" viewBox="0 0 401.38 73.17"><path d="M52.2 41.81a20.91 20.91 0 1 0-20.91-20.9 20.9 20.9 0 0 0 20.91 20.9Z" style="fill:#ffcd00"/><path d="M52.33 52.26h-.07a31.38 31.38 0 0 1-30.4-23.63c-1.05-4.18-4.45-7.72-8.76-7.72H0a52.26 52.26 0 0 0 52.26 52.26h.07Z" style="fill:#00ecbb"/><path d="M52.2 52.26h.06a31.37 31.37 0 0 0 30.4-23.63c1.06-4.18 4.46-7.72 8.77-7.72h13.1a52.27 52.27 0 0 1-52.27 52.26h-.06Z" style="fill:#af64ff"/><path d="M89.22 57.86a52.26 52.26 0 0 1-73.91 0l14.78-14.78a31.37 31.37 0 0 0 44.35 0Z" style="fill:#7131ff"/><path d="M364.86 19.86h5.75v24.48h-5.75Zm2.9-4a3.71 3.71 0 0 1-2.62-1 3.25 3.25 0 0 1-1.06-2.47 3.13 3.13 0 0 1 1.06-2.39 3.65 3.65 0 0 1 2.62-1 3.76 3.76 0 0 1 2.62 1 3 3 0 0 1 1.06 2.34 3.51 3.51 0 0 1-1.06 2.57 3.56 3.56 0 0 1-2.62.92Zm-11.37 28.8a3.69 3.69 0 0 1-3.77-3.81 3.75 3.75 0 0 1 1.06-2.75 3.79 3.79 0 0 1 2.71-1.05 3.68 3.68 0 0 1 3.77 3.8 3.68 3.68 0 0 1-3.77 3.81Zm25.17-1.6a15 15 0 0 0 13.47 0 11.72 11.72 0 0 0 4.65-4.45 12.65 12.65 0 0 0 1.7-6.51 12.36 12.36 0 0 0-1.7-6.46 11.66 11.66 0 0 0-4.68-4.45 15 15 0 0 0-13.47 0 11.89 11.89 0 0 0-4.69 4.45 12.53 12.53 0 0 0-1.66 6.46 12.82 12.82 0 0 0 1.66 6.51 12 12 0 0 0 4.72 4.45Zm11.95-5.41a7.59 7.59 0 0 1-10.48 0 7.69 7.69 0 0 1-2-5.55 7.69 7.69 0 0 1 2-5.55 7.56 7.56 0 0 1 10.48 0 7.59 7.59 0 0 1 2.07 5.55 7.59 7.59 0 0 1-2.07 5.55ZM231 43a6.67 6.67 0 0 1-2.47 1.23 10.89 10.89 0 0 1-3 .41 8.61 8.61 0 0 1-6.21-2.1 8 8 0 0 1-2.19-6.1V14.65h5.7v5.55h6.53v4.56h-6.53v11.57a3.93 3.93 0 0 0 .87 2.73 3.3 3.3 0 0 0 2.51.91 5.07 5.07 0 0 0 3.2-1Zm-82.39 1.64a14.36 14.36 0 0 1-6.8-1.59 11.79 11.79 0 0 1-4.7-4.42 12.47 12.47 0 0 1-1.69-6.47 12.21 12.21 0 0 1 1.69-6.42 11.85 11.85 0 0 1 4.65-4.42 14.45 14.45 0 0 1 6.85-1.59 13.08 13.08 0 0 1 6.3 1.46A9.36 9.36 0 0 1 159 25.4l-4.35 2.6a6.76 6.76 0 0 0-2.65-2.56 7 7 0 0 0-3.43-.86 7.17 7.17 0 0 0-5.29 2.09 7.35 7.35 0 0 0-2.1 5.51 7.6 7.6 0 0 0 2 5.56A7.83 7.83 0 0 0 152 39a7.17 7.17 0 0 0 2.65-2.55L159 39a10 10 0 0 1-4.15 4.23 13 13 0 0 1-6.23 1.43Zm47-.77a22.21 22.21 0 0 0 5.8.77c3.41 0 6.11-.68 8.08-2a6.34 6.34 0 0 0 3-5.46 5.54 5.54 0 0 0-1.37-4 7.43 7.43 0 0 0-3.19-2 33.74 33.74 0 0 0-4.8-1 25.06 25.06 0 0 1-4.31-1.18 2 2 0 0 1-1.37-2 2.2 2.2 0 0 1 1.27-2 7.8 7.8 0 0 1 3.84-.77 13.56 13.56 0 0 1 7 1.82l2.2-4.33a14.17 14.17 0 0 0-4.11-1.5 22.14 22.14 0 0 0-5-.59 13.28 13.28 0 0 0-7.85 2.09 6.43 6.43 0 0 0-2.87 5.51 5.93 5.93 0 0 0 1.36 4.15 8 8 0 0 0 3.29 2 36.42 36.42 0 0 0 4.93 1.05 22.19 22.19 0 0 1 4.16.95 1.81 1.81 0 0 1 1.32 1.78q0 2.69-5.11 2.68a17.52 17.52 0 0 1-4.57-.63 14.63 14.63 0 0 1-3.92-1.78l-2.19 4.33a14.63 14.63 0 0 0 4.46 2.13Zm43.53-.82a14.87 14.87 0 0 0 13.38 0 11.68 11.68 0 0 0 4.61-4.42 12.57 12.57 0 0 0 1.69-6.47 12.31 12.31 0 0 0-1.69-6.42 11.68 11.68 0 0 0-4.61-4.42 14.87 14.87 0 0 0-13.38 0 12 12 0 0 0-4.66 4.42 12.57 12.57 0 0 0-1.64 6.42 12.83 12.83 0 0 0 1.64 6.47 12 12 0 0 0 4.71 4.44Zm11.87-5.38a7.5 7.5 0 0 1-10.41 0 7.61 7.61 0 0 1-2-5.51 7.63 7.63 0 0 1 2-5.51 7.53 7.53 0 0 1 10.41 0 7.53 7.53 0 0 1 2.05 5.51 7.51 7.51 0 0 1-2 5.53Zm44-17.94a9.9 9.9 0 0 1 7.31 2.69c1.79 1.76 2.69 4.41 2.69 8v13.92h-5.71V31.13a7.05 7.05 0 0 0-1.3-4.78 5.08 5.08 0 0 0-4.06-1.64 5.9 5.9 0 0 0-4.61 1.92 7.58 7.58 0 0 0-1.77 5.37v12.34h-5.71V31.13a7.05 7.05 0 0 0-1.41-4.78 5.09 5.09 0 0 0-4.06-1.64 6.08 6.08 0 0 0-4.66 1.87A7.81 7.81 0 0 0 270 32v12.34h-5.71V30.73c0-6.82 5.17-11 11.92-11a18.21 18.21 0 0 1 6.34 1.05 7.63 7.63 0 0 1 3.38 3 10.08 10.08 0 0 1 3.88-3 12.4 12.4 0 0 1 5.28-1.03ZM335.43 34q.09-1.09.09-1.68a13.14 13.14 0 0 0-1.59-6.56 10.86 10.86 0 0 0-4.39-4.42 12.54 12.54 0 0 0-6.34-1.59 13.19 13.19 0 0 0-6.49 1.59 11.6 11.6 0 0 0-4.51 4.47 12.64 12.64 0 0 0-1.6 6.37 12.73 12.73 0 0 0 1.64 6.47 11.8 11.8 0 0 0 4.76 4.42 16.54 16.54 0 0 0 12.74.59 10.35 10.35 0 0 0 4.15-3l-3.06-3.51a8.89 8.89 0 0 1-6.62 2.64 8.74 8.74 0 0 1-5.29-1.55A6.76 6.76 0 0 1 316.3 34Zm-16.89-8.06a6.94 6.94 0 0 1 4.66-1.64 6.81 6.81 0 0 1 4.65 1.64 6.7 6.7 0 0 1 2.24 4.28h-13.83a6.73 6.73 0 0 1 2.28-4.28Zm36.57-6.19v5.42a7.43 7.43 0 0 0-1.32-.14 6.86 6.86 0 0 0-5.21 2 7.67 7.67 0 0 0-1.87 5.56v11.75H341V32.08c0-8.89 5.71-13.44 14.11-12.33Zm-180 24.91c-3.26 0-6.73-.9-8.61-2.69s-2.79-4.51-2.79-8.06V20h5.71v13.14a7.2 7.2 0 0 0 1.46 4.92 6.44 6.44 0 0 0 8.47 0 7.25 7.25 0 0 0 1.46-4.92V20h5.71v13.91q0 5.33-2.79 8.06c-1.9 1.79-5.39 2.69-8.64 2.69Z" style="fill:#2f326a;fill-rule:evenodd"/></svg>